<?xml version="1.0" encoding="utf-8"?>
<!-- Generator: Adobe Illustrator 21.0.2, SVG Export Plug-In . SVG Version: 6.00 Build 0)  -->
<svg version="1.1" id="Layer_1" xmlns="http://www.w3.org/2000/svg" xmlns:xlink="http://www.w3.org/1999/xlink" x="0px" y="0px"
	 viewBox="0 0 793.7 793.7" style="enable-background:new 0 0 793.7 793.7;" xml:space="preserve">
<style type="text/css">
	.st0{fill:#FFF;}
</style>
<path class="st0" d="M544.5,291.9c-13.7-15.1-32.3-23.5-50.4-31.7c-33.2-15-57.3-25.8-50.4-71.5l-29.7-4.5l-41,270.5
	c-12.6-12.4-29.7-21.3-49.4-24.3c-45-6.8-86.4,19.8-92.4,59.3c-6,39.5,25.7,77.2,70.7,84.1c45,6.8,86.4-19.8,92.4-59.3l38.9-256.7
	c13.5,13.9,31.3,21.9,48.5,29.7c33.2,15,57.3,25.8,50.4,71.5l29.7,4.5C566.3,333.2,560.7,309.8,544.5,291.9z"/>
</svg>
