<?xml version="1.0" encoding="iso-8859-1"?>
<!-- Generator: Adobe Illustrator 19.0.0, SVG Export Plug-In . SVG Version: 6.00 Build 0)  -->
<svg version="1.1" id="Layer_1" xmlns="http://www.w3.org/2000/svg" xmlns:xlink="http://www.w3.org/1999/xlink" x="0px" y="0px"
	 viewBox="0 0 473.658 473.658" style="enable-background:new 0 0 473.658 473.658;" xml:space="preserve">
<circle style="fill:#344E5D;" cx="236.829" cy="236.829" r="236.829"/>
<g>
	<path style="fill:#5AABB9;" d="M168.611,169.658c0,6.387-5.179,11.563-11.563,11.563h-32.161c-6.383,0-11.555-5.176-11.555-11.563
		l0,0c0-6.38,5.172-11.555,11.555-11.555h32.161C163.432,158.103,168.611,163.278,168.611,169.658L168.611,169.658z"/>
	<path style="fill:#5AABB9;" d="M307.305,169.658c0,6.387-5.179,11.563-11.563,11.563h-32.161c-6.384,0-11.563-5.176-11.563-11.563
		l0,0c0-6.38,5.179-11.555,11.563-11.555h32.161C302.126,158.103,307.305,163.278,307.305,169.658L307.305,169.658z"/>
</g>
<path style="fill:#67B8CB;" d="M418.873,289.759c0,6.129-7.786,14.42-13.915,14.42H60.338c-6.129,0-11.095-4.966-11.095-11.095
	V175.212c0-6.122,4.966-11.088,11.095-11.088h344.619c6.129,0,11.095,4.966,11.095,11.088c0,0,8.347,49.471,8.347,94.193
	C422.392,286.495,418.873,289.759,418.873,289.759z"/>
<path style="fill:#357180;" d="M419.879,288.417c0,6.129-4.929,15.762-11.058,15.762H60.338c-6.129,0-11.095-4.966-11.095-11.095
	h364.604L419.879,288.417z"/>
<circle style="fill:#202121;" cx="175.948" cy="303.244" r="19.79"/>
<circle style="fill:#5E5F5E;" cx="175.948" cy="303.244" r="9.091"/>
<circle style="fill:#202121;" cx="87.338" cy="303.244" r="19.786"/>
<circle style="fill:#5E5F5E;" cx="87.338" cy="303.244" r="9.095"/>
<circle style="fill:#202121;" cx="302.833" cy="303.244" r="19.782"/>
<circle style="fill:#5E5F5E;" cx="302.833" cy="303.244" r="9.091"/>
<path style="fill:#357180;" d="M404.599,304.179h-77.406V210.39c0-6.78,5.12-12.281,11.439-12.281h54.531
	c6.312,0,11.439,5.501,11.439,12.281v93.789H404.599z"/>
<path style="fill:#CDEAEA;" d="M401.585,299.471h-71.374v-83.969c0-6.077,4.719-11.002,10.546-11.002h50.279
	c5.823,0,10.546,4.925,10.546,11.002v83.969H401.585z"/>
<rect x="363.901" y="198.161" style="fill:#357180;" width="2.083" height="105.977"/>
<path style="fill:#CDEAEA;" d="M239.465,203.778c0-3.766,3.052-6.821,6.821-6.821h50.163c3.77,0,6.821,3.055,6.821,6.821v50.17
	c0,3.77-3.052,6.821-6.821,6.821h-50.163c-3.77,0-6.821-3.052-6.821-6.821V203.778z"/>
<path style="fill:#357180;" d="M296.449,261.772h-50.163c-4.315,0-7.831-3.508-7.831-7.827v-50.167c0-4.308,3.512-7.823,7.831-7.823
	h50.163c4.315,0,7.831,3.511,7.831,7.823v50.17C304.28,258.264,300.769,261.772,296.449,261.772z M246.286,197.963
	c-3.212,0-5.823,2.606-5.823,5.815v50.17c0,3.205,2.607,5.815,5.823,5.815h50.163c3.205,0,5.815-2.607,5.815-5.815v-50.17
	c0-3.205-2.607-5.815-5.815-5.815H246.286z"/>
<path style="fill:#CDEAEA;" d="M154.367,203.778c0-3.766,3.059-6.821,6.821-6.821h50.17c3.77,0,6.821,3.055,6.821,6.821v50.17
	c0,3.77-3.051,6.821-6.821,6.821h-50.17c-3.762,0-6.821-3.052-6.821-6.821V203.778z"/>
<path style="fill:#357180;" d="M211.359,261.772h-50.17c-4.308,0-7.823-3.508-7.823-7.827v-50.167c0-4.308,3.511-7.823,7.823-7.823
	h50.17c4.315,0,7.831,3.511,7.831,7.823v50.17C219.189,258.264,215.678,261.772,211.359,261.772z M161.188,197.963
	c-3.205,0-5.815,2.606-5.815,5.815v50.17c0,3.205,2.606,5.815,5.815,5.815h50.17c3.205,0,5.815-2.607,5.815-5.815v-50.17
	c0-3.205-2.606-5.815-5.815-5.815H161.188z"/>
<path style="fill:#CDEAEA;" d="M69.276,203.778c0-3.766,3.052-6.821,6.821-6.821h50.17c3.77,0,6.821,3.055,6.821,6.821v50.17
	c0,3.77-3.052,6.821-6.821,6.821h-50.17c-3.77,0-6.821-3.052-6.821-6.821V203.778z"/>
<g>
	<path style="fill:#357180;" d="M126.271,261.772H76.097c-4.315,0-7.831-3.508-7.831-7.827v-50.167c0-4.308,3.511-7.823,7.831-7.823
		h50.17c4.315,0,7.823,3.511,7.823,7.823v50.17C134.091,258.264,130.587,261.772,126.271,261.772z M76.097,197.963
		c-3.205,0-5.815,2.606-5.815,5.815v50.17c0,3.205,2.607,5.815,5.815,5.815h50.17c3.205,0,5.815-2.607,5.815-5.815v-50.17
		c0-3.205-2.606-5.815-5.815-5.815H76.097z"/>
	<path style="fill:#357180;" d="M424.138,262.625c0,0.718-5.464,0.576-9.379-3.994c-2.161-2.524-1.343-53.095-0.423-75.151
		c0.247-6.032,1.716-8.265,1.716-8.265S424.138,229.653,424.138,262.625z"/>
</g>
<path style="fill:#CDEAEA;" d="M424.232,257.262c0,0.673-4.353,0.082-7.12-4.188c-2.76-4.271-1.088-79.897-1.088-79.897
	S424.232,226.437,424.232,257.262z"/>
<g>
</g>
<g>
</g>
<g>
</g>
<g>
</g>
<g>
</g>
<g>
</g>
<g>
</g>
<g>
</g>
<g>
</g>
<g>
</g>
<g>
</g>
<g>
</g>
<g>
</g>
<g>
</g>
<g>
</g>
</svg>
