<?xml version="1.0" encoding="utf-8"?>
<!-- Generator: Adobe Illustrator 21.0.2, SVG Export Plug-In . SVG Version: 6.00 Build 0)  -->
<svg version="1.1" id="Capa_1" xmlns="http://www.w3.org/2000/svg" xmlns:xlink="http://www.w3.org/1999/xlink" x="0px" y="0px"
	 viewBox="0 0 441 441" style="enable-background:new 0 0 441 441;" xml:space="preserve">
<style type="text/css">
	.st0{fill:#EC4E35;}
</style>
<g>
	<g id="XMLID_1_">
		<g>
			<g id="XMLID_2_">
				<g>
					<path class="st0" d="M435.3,209c3.6,2.7,5.7,7,5.7,11.5s-2.1,8.7-5.7,11.5l-54,40.8l19.7,64.8c1.3,4.3,0.5,9-2.1,12.6
						c-2.6,3.6-6.9,5.8-11.4,5.9l-67.7,1.2l-22.1,64c-1.5,4.3-4.9,7.6-9.1,9c-1.5,0.5-2.9,0.7-4.4,0.7c-2.9,0-5.8-0.9-8.2-2.6
						l-55.5-38.8L165,428.4c-3.7,2.6-8.4,3.3-12.7,1.9c-4.3-1.4-7.7-4.7-9.1-9l-22.1-64L53.5,356c-4.5-0.1-8.7-2.3-11.4-5.9
						c-2.6-3.6-3.4-8.3-2.1-12.6l19.7-64.8L5.7,232c-3.6-2.7-5.7-7-5.7-11.5s2.1-8.8,5.7-11.5l54-40.8L40,103.5
						c-1.3-4.3-0.5-9,2.1-12.6c2.6-3.6,6.9-5.8,11.4-5.9l67.7-1.2l22.1-64c1.5-4.3,4.9-7.6,9.2-9s9-0.7,12.7,1.9l55.5,38.8L276,12.6
						c3.7-2.6,8.4-3.3,12.7-1.9c4.3,1.4,7.7,4.7,9.1,9l22.1,64l67.7,1.2c4.5,0.1,8.7,2.3,11.4,5.9c2.6,3.7,3.4,8.3,2.1,12.6
						l-19.7,64.8L435.3,209z M356.8,228.5v-42.1c0-3.1-2.5-5.6-5.6-5.6h-6.3c-3.1,0-5.6,2.5-5.6,5.6v42.1c0,4.5-1.2,7.9-3.8,10.3
						c-2.5,2.5-6,3.7-10.5,3.7s-8-1.2-10.5-3.7c-2.5-2.4-3.7-5.8-3.7-10.3v-42.1c0-3.1-2.5-5.6-5.6-5.6h-6.5c-3.1,0-5.6,2.5-5.6,5.6
						v42.1c0,4.5-1.2,7.9-3.7,10.3c-2.5,2.5-6,3.7-10.5,3.7s-8-1.2-10.5-3.7c-2.5-2.4-3.8-5.8-3.8-10.3v-42.1c0-3.1-2.5-5.6-5.6-5.6
						h-6.3c-3.1,0-5.6,2.5-5.6,5.6v42.1c0,8.8,3.1,16.4,9.3,22.7c6.2,6.3,13.8,9.5,22.5,9.5c8.9,0,16.6-3.4,23.1-10.1
						c6.5,6.7,14.2,10.1,23.1,10.1c8.8,0,16.4-3.2,22.5-9.5C353.6,244.9,356.8,237.3,356.8,228.5z M237.9,232.5
						c0.5-1.6,0.3-3.3-0.6-4.7c-0.9-1.4-2.3-2.3-4-2.6l-6.3-0.9c-2.6-0.4-5.2,1.1-6.1,3.6c-1.1,2.9-2.8,5.6-5.1,7.9
						c-4.4,4.4-9.6,6.6-15.8,6.6s-11.4-2.1-15.8-6.5c-0.7-0.7-1.3-1.4-1.9-2.1l50-26.8c1.3-0.7,2.3-2,2.8-3.4
						c0.4-1.5,0.2-3.1-0.6-4.4c-1.8-3.1-5-6.7-9.4-10.5c-6.3-5.6-14.8-8.4-25.1-8.4c-11.1,0-20.3,3.8-28.1,11.7
						c-7.9,7.8-11.7,17.1-11.7,28.1c0,11.1,3.8,20.4,11.7,28.2c7.9,7.8,17,11.6,28.1,11.6s20.3-3.8,28.1-11.7
						C232.9,243.6,236.1,238.4,237.9,232.5z M152.3,253.2v-41.4c0-8.6-3.4-16.1-10-22.3c-6.6-6.1-14.7-9.2-24-9.2s-17.4,3.1-24,9.2
						c-6.7,6.1-10,13.6-10,22.3v41.4c0,3.1,2.5,5.6,5.6,5.6H96c3.1,0,5.6-2.5,5.6-5.6v-41.4c0-4.7,1.4-8.2,4.3-10.8
						c3-2.6,7.1-3.9,12.3-3.9c5.2,0,9.3,1.3,12.3,3.9c2.9,2.6,4.4,6.1,4.4,10.8v41.4c0,3.1,2.5,5.6,5.6,5.6h6.1
						C149.8,258.8,152.3,256.3,152.3,253.2z"/>
				</g>
				<g>
				</g>
			</g>
			<path class="st0" d="M211.4,200.9l-33.7,18c0.3-5.6,2.4-10.4,6.5-14.4c4.4-4.4,9.6-6.6,15.8-6.6
				C204.2,197.8,208,198.8,211.4,200.9z"/>
		</g>
	</g>
</g>
</svg>
