<?xml version="1.0" encoding="iso-8859-1"?>
<!-- Generator: Adobe Illustrator 19.0.0, SVG Export Plug-In . SVG Version: 6.00 Build 0)  -->
<svg version="1.1" id="Layer_1" xmlns="http://www.w3.org/2000/svg" xmlns:xlink="http://www.w3.org/1999/xlink" x="0px" y="0px"
	 viewBox="0 0 473.681 473.681" style="enable-background:new 0 0 473.681 473.681;" xml:space="preserve">
<circle style="fill:#A2D4DE;" cx="236.853" cy="236.84" r="236.827"/>
<path style="fill:#B1B1B2;" d="M1.361,262.112c3.272,30.859,12.483,59.934,26.45,86.092
	c39.856,74.646,118.5,125.463,209.035,125.463c90.524,0,169.163-50.813,209.023-125.455c13.833-25.904,22.98-54.676,26.338-85.199
	L1.361,262.112z"/>
<path style="fill:#6CC077;" d="M473.434,227.114c-0.542-13.474-2.191-26.656-4.903-39.46c-2.565-12.15-6.084-23.941-10.43-35.324
	l-47.848-47.844c0,0-31.012-36.147-56.95-37.62c-25.93-1.473-53.872,34.535-53.872,34.535l-42.706,42.713l-6.903-6.914
	c0,0-25.22-29.408-46.345-30.612c-21.11-1.2-43.832,28.114-43.832,28.114l-22.692,22.695c-3.601-4.035-22.531-24.326-38.761-25.253
	c-17.991-1.021-37.381,23.971-37.381,23.971l-30.698,30.694L5.348,186.76c-0.613,2.865-1.156,5.759-1.664,8.657
	c-1.189,6.754-2.109,13.593-2.719,20.53C0.366,222.832,0,229.784,0,236.825c0,8.545,0.475,16.974,1.357,25.283L472.2,263.01
	c0.95-8.601,1.477-17.329,1.477-26.185C473.681,233.572,473.565,230.341,473.434,227.114z"/>
<path style="fill:#FFFFFF;" d="M404.147,355.609l-37.833,0.198l-0.052-10.112l37.826-0.202L404.147,355.609z M328.488,356.009
	l-37.833,0.202l-0.052-10.127l37.833-0.198L328.488,356.009z M252.825,356.406l-37.833,0.198l-0.052-10.116l37.833-0.206
	L252.825,356.406z M177.166,356.806l-37.826,0.202l-0.052-10.127l37.826-0.194L177.166,356.806z M101.507,357.202L63.681,357.4
	l-0.052-10.123l37.826-0.194L101.507,357.202z"/>
<path style="fill:#357180;" d="M364.848,264.064l-220.403,4.401c38.424-47.448,76.441-59.459,112.415-60.177
	C295.094,207.522,336.973,220.184,364.848,264.064z"/>
<g>
	<path style="fill:#A2DADB;" d="M251.258,265.65l-88.837,1.776c30.062-37.119,59.788-46.509,87.932-47.07L251.258,265.65z"/>
	<path style="fill:#A2DADB;" d="M261.942,265.433l88.837-1.773c-31.51-35.889-61.595-44.086-89.742-43.525L261.942,265.433z"/>
</g>
<path style="fill:#357180;" d="M358.33,332.252c0,0-279.84,5.591-289.548,5.789c-6.75,0.127-7.58-13.354-7.58-13.354
	c-1.212-60.716,91.107-56.939,91.107-56.939l212.236-4.241c0,0,16.032,9.211,33.144,11.716
	c12.688,1.851,17.127,12.595,17.363,24.397C415.351,314.941,405.968,323.703,358.33,332.252z"/>
<path style="fill:#818282;" d="M225.657,329.84c-94.035,0.191-163.715-0.243-163.715-0.243s-0.079,1.055-0.344,4.016
	c-0.329,3.717,1.571,6.226,4.301,6.17l292.184-5.841l0.438-6.761C329.823,326.631,319.692,329.649,225.657,329.84z"/>
<g>
	<circle style="fill:#202121;" cx="123.395" cy="327.114" r="34.584"/>
	<circle style="fill:#202121;" cx="325.818" cy="323.075" r="34.587"/>
</g>
<g>
	<circle style="fill:#818282;" cx="123.395" cy="327.114" r="16.869"/>
	<circle style="fill:#818282;" cx="325.818" cy="323.075" r="16.869"/>
</g>
<g>
</g>
<g>
</g>
<g>
</g>
<g>
</g>
<g>
</g>
<g>
</g>
<g>
</g>
<g>
</g>
<g>
</g>
<g>
</g>
<g>
</g>
<g>
</g>
<g>
</g>
<g>
</g>
<g>
</g>
</svg>
