<?xml version="1.0" encoding="iso-8859-1"?>
<!-- Generator: Adobe Illustrator 19.0.0, SVG Export Plug-In . SVG Version: 6.00 Build 0)  -->
<svg version="1.1" id="Layer_1" xmlns="http://www.w3.org/2000/svg" xmlns:xlink="http://www.w3.org/1999/xlink" x="0px" y="0px"
	 viewBox="0 0 511.995 511.995" style="enable-background:new 0 0 511.995 511.995;" xml:space="preserve">
<circle style="fill:#3A99D7;" cx="255.997" cy="255.997" r="255.997"/>
<path style="fill:#2682BF;" d="M508.468,299.117L293.402,84.052l-67.637-1.662l-13.61,21.714l9.143,9.662l-33.142,217.143
	l11.221,11.844l-31.273,54.754l114.806,113.039c111.377-11.636,201.558-94.649,223.792-202.598l0.311-1.766l0.519-2.494
	c0.311-1.558,0.623-3.221,0.831-4.779L508.468,299.117z"/>
<path style="fill:#CCCCCC;" d="M231.896,78.649h48.312c7.689,0,15.065,4.26,16.831,12.468l2.909,12.987h-11.74l-2.909-12.987
	c-0.311-1.351-3.948-2.494-5.195-2.494h-4.883v26.286h-5.298V88.624h-27.844v26.286h-5.298V88.624h-4.883
	c-1.247,0-4.883,1.143-5.195,2.494l-2.909,12.987h-11.74l2.909-12.987c1.87-8.208,9.143-12.468,16.831-12.468L231.896,78.649
	L231.896,78.649z"/>
<path style="fill:#FFD630;" d="M214.234,317.298h12.779l-6.13,14.442h70.441l-6.13-14.442h12.779l46.129,80.311H168.207
	l46.129-80.311H214.234z M217.143,340.363l-6.234,14.545h90.077l-6.234-14.545h-77.714H217.143z M206.857,364.571l-8.104,19.117
	h114.597l-8.208-19.117H206.857z"/>
<path style="fill:#F5FBFC;" d="M224.415,113.662h63.273c17.143,0,36.259,16.831,40.312,32.623l27.221,105.87
	c4.052,15.793-14.13,78.857-31.169,78.857H309.09l-0.104-0.208l-3.532-8.727c-0.623-1.455-1.974-2.909-3.636-2.909h-1.351h-0.104
	h-89.973h-0.104h-1.351c-1.662,0-1.87,1.455-2.494,2.909l-3.532,8.727l-0.104,0.208h-14.753c-17.038,0-35.325-62.857-31.169-78.857
	l27.221-105.87C188.156,130.389,207.273,113.662,224.415,113.662z"/>
<path style="fill:#D3EEF0;" d="M255.999,113.662h31.688c17.143,0,36.259,16.831,40.312,32.623l27.221,105.87
	c4.052,15.793-14.13,78.857-31.169,78.857H309.09l-0.104-0.208l-3.532-8.727c-0.623-1.455-1.974-2.909-3.636-2.909h-1.351h-0.104
	h-44.26V113.559L255.999,113.662z"/>
<path style="fill:#A7D6D9;" d="M222.545,128.104h63.792c16,0,24.519,13.922,29.091,29.506l17.87,60.571
	c4.572,15.481-13.091,29.506-29.091,29.506h-96.519c-16,0-33.039-13.714-29.091-29.506l14.857-60.571
	C197.298,141.922,206.545,128.104,222.545,128.104z"/>
<path style="fill:#00D9FF;" d="M223.585,129.87h61.818c15.481,0,23.793,13.402,28.259,28.259l17.351,57.974
	c4.468,14.857-12.779,28.259-28.259,28.259h-93.611c-15.481,0-32-13.195-28.259-28.259l14.442-57.974
	C199.064,143.065,208,129.87,223.585,129.87z"/>
<path style="fill:#EBFCFF;" d="M245.299,129.87h40.104h0.415l-78.026,114.493c-12.155-0.623-24.416-8.935-26.91-19.844l64.52-94.649
	L245.299,129.87L245.299,129.87z M295.273,131.948c3.844,1.766,6.961,4.572,9.662,8l-71.169,104.415h-15.065L295.273,131.948z"/>
<circle style="fill:#00D9FF;" cx="208.208" cy="292.47" r="17.87"/>
<circle style="fill:#FFD630;" cx="208.208" cy="292.47" r="12.987"/>
<circle style="fill:#00D9FF;" cx="303.797" cy="292.47" r="17.87"/>
<circle style="fill:#FFD630;" cx="303.797" cy="292.47" r="12.987"/>
<g>
</g>
<g>
</g>
<g>
</g>
<g>
</g>
<g>
</g>
<g>
</g>
<g>
</g>
<g>
</g>
<g>
</g>
<g>
</g>
<g>
</g>
<g>
</g>
<g>
</g>
<g>
</g>
<g>
</g>
</svg>
