<?xml version="1.0" encoding="iso-8859-1"?>
<!-- Generator: Adobe Illustrator 19.0.0, SVG Export Plug-In . SVG Version: 6.00 Build 0)  -->
<svg version="1.1" id="Layer_1" xmlns="http://www.w3.org/2000/svg" xmlns:xlink="http://www.w3.org/1999/xlink" x="0px" y="0px"
	 viewBox="0 0 496.159 496.159" style="enable-background:new 0 0 496.159 496.159;" xml:space="preserve">
<path style="fill:#EA4949;" d="M248.083,0.003C111.071,0.003,0,111.063,0,248.085c0,137.001,111.07,248.07,248.083,248.07
	c137.006,0,248.076-111.069,248.076-248.07C496.159,111.062,385.089,0.003,248.083,0.003z"/>
<g>
	<path style="fill:#EB9783;" d="M363.62,142.256c0,0-48.855-26.216-72.688,9.532c0,0-13.107,20.257,5.959,51.24
		c0,0,13.107,23.832,3.575,39.323c0,0-22.641,33.364-5.959,53.622c0,0,54.814,54.813,92.945-67.921
		C387.452,228.052,411.283,168.471,363.62,142.256z"/>
	<ellipse style="fill:#EB9783;" cx="292.12" cy="116.339" rx="15.491" ry="19.364"/>
	<path style="fill:#EB9783;" d="M325.371,95.634c-6.648,0-12.037,6.736-12.037,15.044s5.389,15.045,12.037,15.045
		c6.645,0,12.035-6.736,12.035-15.045S332.016,95.634,325.371,95.634z"/>
	
		<ellipse transform="matrix(-0.9605 -0.2782 0.2782 -0.9605 658.2359 325.8567)" style="fill:#EB9783;" cx="352.238" cy="116.225" rx="11.327" ry="14.159"/>
	
		<ellipse transform="matrix(-0.9605 -0.2782 0.2782 -0.9605 700.3113 356.8687)" style="fill:#EB9783;" cx="375.476" cy="128.746" rx="9.611" ry="12.01"/>
	
		<ellipse transform="matrix(-0.94 -0.3413 0.3413 -0.94 714.2082 412.9883)" style="fill:#EB9783;" cx="393.431" cy="143.671" rx="8.74" ry="10.923"/>
	<path style="fill:#EB9783;" d="M199.269,295.378c19.066-30.983,5.959-51.24,5.959-51.24c-23.833-35.748-72.688-9.532-72.688-9.532
		c-47.663,26.214-23.832,85.795-23.832,85.795c38.131,122.734,92.945,67.922,92.945,67.922c16.682-20.259-5.959-53.622-5.959-53.622
		C186.162,319.21,199.269,295.378,199.269,295.378z"/>
	<ellipse style="fill:#EB9783;" cx="204.04" cy="208.689" rx="15.492" ry="19.364"/>
	<ellipse style="fill:#EB9783;" cx="170.79" cy="203.029" rx="12.04" ry="15.04"/>
	
		<ellipse transform="matrix(-0.2783 -0.9605 0.9605 -0.2783 -16.4013 404.8408)" style="fill:#EB9783;" cx="143.895" cy="208.582" rx="14.16" ry="11.327"/>
	
		<ellipse transform="matrix(-0.2782 -0.9605 0.9605 -0.2782 -58.1442 398.5098)" style="fill:#EB9783;" cx="120.66" cy="221.101" rx="12.01" ry="9.611"/>
	
		<ellipse transform="matrix(-0.3413 -0.94 0.94 -0.3413 -84.0449 413.1706)" style="fill:#EB9783;" cx="102.751" cy="236.034" rx="10.924" ry="8.739"/>
</g>
<g>
</g>
<g>
</g>
<g>
</g>
<g>
</g>
<g>
</g>
<g>
</g>
<g>
</g>
<g>
</g>
<g>
</g>
<g>
</g>
<g>
</g>
<g>
</g>
<g>
</g>
<g>
</g>
<g>
</g>
</svg>
