<?xml version="1.0" encoding="utf-8"?>
<!-- Generator: Adobe Illustrator 21.0.2, SVG Export Plug-In . SVG Version: 6.00 Build 0)  -->
<svg version="1.1" id="Layer_1" xmlns="http://www.w3.org/2000/svg" xmlns:xlink="http://www.w3.org/1999/xlink" x="0px" y="0px"
	 viewBox="0 0 267.8 267.8" style="enable-background:new 0 0 267.8 267.8;" xml:space="preserve">
<style type="text/css">
	.st0{fill:#4BE1AB;}
	.st1{font-family:'MyriadPro-Regular';}
	.st2{font-size:106.9921px;}
</style>
<g>
	<g>
		<path class="st0" d="M53.7,190.5C9.9,146.8,10.1,75.9,54.3,32.5c21.4-21,49.8-32.6,80-32.5c30.2,0.1,58.5,11.8,79.8,33
			c21.3,21.2,32.9,49.3,32.8,79.2c-0.1,29.9-11.9,57.9-33.4,78.9l-74.2,74.3c-3.1,3.2-8.8,3.2-11.9,0L53.7,190.5z M66.1,44.2
			c-37.7,37-37.9,97.5-0.5,134.8c0,0,0,0,0.1,0l67.8,68.9l68.3-68.4c18.3-18,28.4-41.9,28.5-67.3c0.1-25.5-9.8-49.4-28-67.5
			c-18.1-18.1-42.3-28.1-68-28.2C108.6,16.4,84.3,26.2,66.1,44.2z"/>
	</g>
	<g>
	</g>
</g>
<text transform="matrix(1 -1.466509e-04 1.466509e-04 1 107.9688 156.5498)" class="st0 st1 st2">0</text>
</svg>
